<svg width="375" height="98" viewBox="0 0 375 98" fill="none" xmlns="http://www.w3.org/2000/svg">
<path d="M17.522 29.5801C12.4441 29.1197 8.1153 27.9878 5.09405 26.3303C2.87224 25.1114 1.5243 23.7142 1.24984 22.3455L1.14502 21.8228L3.78256 19.6056C5.94869 17.7847 6.45169 17.4135 6.59681 17.5289C8.91311 19.3706 12.673 20.6175 17.69 21.2078C19.4025 21.4093 24.5554 21.4076 26.3112 21.2049C30.7933 20.6874 34.5011 19.56 36.6942 18.0478L37.6124 17.4147L40.2344 19.6188L42.8564 21.8229L42.7746 22.2259C42.0402 25.8426 35.4622 28.7767 26.267 29.5891C24.6072 29.7358 19.1774 29.7302 17.522 29.5801V29.5801Z" fill="#6495ED"/>
<path d="M1 21.7059V68.7647C1 69.8461 1.54318 70.917 2.59853 71.9162C3.65388 72.9153 5.20073 73.8232 7.15076 74.5879C9.10079 75.3526 11.4158 75.9592 13.9636 76.3731C16.5115 76.7869 19.2422 77 22 77C24.7578 77 27.4885 76.7869 30.0364 76.3731C32.5842 75.9592 34.8992 75.3526 36.8492 74.5879C38.7993 73.8232 40.3461 72.9153 41.4015 71.9162C42.4568 70.917 43 69.8461 43 68.7647V21.7059C43 23.89 40.7875 25.9847 36.8492 27.5291C32.911 29.0735 27.5695 29.9411 22 29.9411C16.4305 29.9411 11.089 29.0735 7.15076 27.5291C3.21249 25.9847 1 23.89 1 21.7059L9.4 14.647H34.6L43 21.7059" fill="#6495ED"/>
<path d="M1 21.7059V68.7647C1 69.8461 1.54318 70.917 2.59853 71.9162C3.65388 72.9153 5.20073 73.8232 7.15076 74.5879C9.10079 75.3526 11.4158 75.9592 13.9636 76.3731C16.5115 76.7869 19.2422 77 22 77C24.7578 77 27.4885 76.7869 30.0364 76.3731C32.5842 75.9592 34.8992 75.3526 36.8492 74.5879C38.7993 73.8232 40.3461 72.9153 41.4015 71.9162C42.4568 70.917 43 69.8461 43 68.7647V21.7059C43 23.89 40.7875 25.9847 36.8492 27.5291C32.911 29.0735 27.5695 29.9411 22 29.9411C16.4305 29.9411 11.089 29.0735 7.15076 27.5291C3.21249 25.9847 1 23.89 1 21.7059L9.4 14.647H34.6L43 21.7059" stroke="#F0FFFF" stroke-width="2" stroke-linecap="round"/>
<path d="M5.1991 7.58823V14.6471C5.1991 15.5122 5.63364 16.3689 6.47792 17.1683C7.3222 17.9676 8.55968 18.6939 10.1197 19.3056C11.6797 19.9174 13.5317 20.4027 15.57 20.7338C17.6083 21.0649 19.7929 21.2353 21.9991 21.2353C24.2053 21.2353 26.3899 21.0649 28.4282 20.7338C30.4664 20.4027 32.3185 19.9174 33.8785 19.3056C35.4385 18.6939 36.676 17.9676 37.5203 17.1683C38.3645 16.3689 38.7991 15.5122 38.7991 14.6471V7.58823C38.7991 9.33554 37.0291 11.0113 33.8785 12.2468C30.7279 13.4823 26.4547 14.1765 21.9991 14.1765C17.5435 14.1765 13.2703 13.4823 10.1197 12.2468C6.96909 11.0113 5.1991 9.33554 5.1991 7.58823Z" fill="#6495ED" stroke="#F0FFFF" stroke-width="2" stroke-linecap="round"/>
<path d="M5.1991 7.58823C5.1991 6.72306 5.63364 5.86635 6.47792 5.06703C7.3222 4.26771 8.55968 3.54142 10.1197 2.92965C11.6797 2.31787 13.5317 1.83259 15.57 1.5015C17.6083 1.17041 19.7929 1 21.9991 1C24.2053 1 26.3899 1.17041 28.4282 1.5015C30.4664 1.83259 32.3185 2.31787 33.8785 2.92965C35.4385 3.54142 36.676 4.26771 37.5203 5.06703C38.3645 5.86635 38.7991 6.72306 38.7991 7.58823C38.7991 9.33554 37.0291 11.0113 33.8785 12.2468C30.7279 13.4824 26.4547 14.1765 21.9991 14.1765C17.5435 14.1765 13.2703 13.4824 10.1197 12.2468C6.96909 11.0113 5.1991 9.33554 5.1991 7.58823Z" fill="#6495ED" stroke="#F0FFFF" stroke-width="2" stroke-linecap="round"/>
<path d="M68.522 29.5801C63.4441 29.1197 59.1153 27.9878 56.094 26.3303C53.8722 25.1114 52.5243 23.7142 52.2498 22.3455L52.145 21.8228L54.7826 19.6056C56.9487 17.7847 57.4517 17.4135 57.5968 17.5289C59.9131 19.3706 63.673 20.6175 68.69 21.2078C70.4025 21.4093 75.5554 21.4076 77.3112 21.2049C81.7933 20.6874 85.5011 19.56 87.6942 18.0478L88.6124 17.4147L91.2344 19.6188L93.8564 21.8229L93.7746 22.2259C93.0402 25.8426 86.4622 28.7767 77.267 29.5891C75.6072 29.7358 70.1774 29.7302 68.522 29.5801V29.5801Z" fill="#6495ED"/>
<path d="M52 21.7059V68.7647C52 69.8461 52.5432 70.917 53.5985 71.9162C54.6539 72.9153 56.2007 73.8232 58.1508 74.5879C60.1008 75.3526 62.4158 75.9592 64.9636 76.3731C67.5115 76.7869 70.2422 77 73 77C75.7578 77 78.4885 76.7869 81.0364 76.3731C83.5842 75.9592 85.8992 75.3526 87.8492 74.5879C89.7993 73.8232 91.3461 72.9153 92.4015 71.9162C93.4568 70.917 94 69.8461 94 68.7647V21.7059C94 23.89 91.7875 25.9847 87.8492 27.5291C83.911 29.0735 78.5695 29.9411 73 29.9411C67.4305 29.9411 62.089 29.0735 58.1508 27.5291C54.2125 25.9847 52 23.89 52 21.7059L60.4 14.647H85.6L94 21.7059" fill="#6495ED"/>
<path d="M52 21.7059V68.7647C52 69.8461 52.5432 70.917 53.5985 71.9162C54.6539 72.9153 56.2007 73.8232 58.1508 74.5879C60.1008 75.3526 62.4158 75.9592 64.9636 76.3731C67.5115 76.7869 70.2422 77 73 77C75.7578 77 78.4885 76.7869 81.0364 76.3731C83.5842 75.9592 85.8992 75.3526 87.8492 74.5879C89.7993 73.8232 91.3461 72.9153 92.4015 71.9162C93.4568 70.917 94 69.8461 94 68.7647V21.7059C94 23.89 91.7875 25.9847 87.8492 27.5291C83.911 29.0735 78.5695 29.9411 73 29.9411C67.4305 29.9411 62.089 29.0735 58.1508 27.5291C54.2125 25.9847 52 23.89 52 21.7059L60.4 14.647H85.6L94 21.7059" stroke="#F0FFFF" stroke-width="2" stroke-linecap="round"/>
<path d="M56.1991 7.58823V14.6471C56.1991 15.5122 56.6336 16.3689 57.4779 17.1683C58.3222 17.9676 59.5597 18.6939 61.1197 19.3056C62.6797 19.9174 64.5317 20.4027 66.57 20.7338C68.6083 21.0649 70.7929 21.2353 72.9991 21.2353C75.2053 21.2353 77.3899 21.0649 79.4282 20.7338C81.4664 20.4027 83.3185 19.9174 84.8785 19.3056C86.4385 18.6939 87.676 17.9676 88.5203 17.1683C89.3645 16.3689 89.7991 15.5122 89.7991 14.6471V7.58823C89.7991 9.33554 88.0291 11.0113 84.8785 12.2468C81.7279 13.4823 77.4547 14.1765 72.9991 14.1765C68.5435 14.1765 64.2703 13.4823 61.1197 12.2468C57.9691 11.0113 56.1991 9.33554 56.1991 7.58823Z" fill="#6495ED" stroke="#F0FFFF" stroke-width="2" stroke-linecap="round"/>
<path d="M56.1991 7.58823C56.1991 6.72306 56.6336 5.86635 57.4779 5.06703C58.3222 4.26771 59.5597 3.54142 61.1197 2.92965C62.6797 2.31787 64.5317 1.83259 66.57 1.5015C68.6083 1.17041 70.7929 1 72.9991 1C75.2053 1 77.3899 1.17041 79.4282 1.5015C81.4664 1.83259 83.3185 2.31787 84.8785 2.92965C86.4385 3.54142 87.676 4.26771 88.5203 5.06703C89.3645 5.86635 89.7991 6.72306 89.7991 7.58823C89.7991 9.33554 88.0291 11.0113 84.8785 12.2468C81.7279 13.4824 77.4547 14.1765 72.9991 14.1765C68.5435 14.1765 64.2703 13.4824 61.1197 12.2468C57.9691 11.0113 56.1991 9.33554 56.1991 7.58823Z" fill="#6495ED" stroke="#F0FFFF" stroke-width="2" stroke-linecap="round"/>
<path d="M43.522 49.5801C38.4441 49.1197 34.1153 47.9878 31.094 46.3303C28.8722 45.1114 27.5243 43.7142 27.2498 42.3455L27.145 41.8228L29.7826 39.6056C31.9487 37.7847 32.4517 37.4135 32.5968 37.5289C34.9131 39.3706 38.673 40.6175 43.69 41.2078C45.4025 41.4093 50.5554 41.4076 52.3112 41.2049C56.7933 40.6874 60.5011 39.56 62.6942 38.0478L63.6124 37.4147L66.2344 39.6188L68.8564 41.8229L68.7746 42.2259C68.0402 45.8426 61.4622 48.7767 52.267 49.5891C50.6072 49.7358 45.1774 49.7302 43.522 49.5801V49.5801Z" fill="#6495ED"/>
<path d="M27 41.7059V88.7647C27 89.8461 27.5432 90.917 28.5985 91.9162C29.6539 92.9153 31.2007 93.8232 33.1508 94.5879C35.1008 95.3526 37.4158 95.9592 39.9636 96.3731C42.5115 96.7869 45.2422 97 48 97C50.7578 97 53.4885 96.7869 56.0364 96.3731C58.5842 95.9592 60.8992 95.3526 62.8492 94.5879C64.7993 93.8232 66.3461 92.9153 67.4015 91.9162C68.4568 90.917 69 89.8461 69 88.7647V41.7059C69 43.89 66.7875 45.9847 62.8492 47.5291C58.911 49.0735 53.5695 49.9411 48 49.9411C42.4305 49.9411 37.089 49.0735 33.1508 47.5291C29.2125 45.9847 27 43.89 27 41.7059L35.4 34.647H60.6L69 41.7059" fill="#6495ED"/>
<path d="M27 41.7059V88.7647C27 89.8461 27.5432 90.917 28.5985 91.9162C29.6539 92.9153 31.2007 93.8232 33.1508 94.5879C35.1008 95.3526 37.4158 95.9592 39.9636 96.3731C42.5115 96.7869 45.2422 97 48 97C50.7578 97 53.4885 96.7869 56.0364 96.3731C58.5842 95.9592 60.8992 95.3526 62.8492 94.5879C64.7993 93.8232 66.3461 92.9153 67.4015 91.9162C68.4568 90.917 69 89.8461 69 88.7647V41.7059C69 43.89 66.7875 45.9847 62.8492 47.5291C58.911 49.0735 53.5695 49.9411 48 49.9411C42.4305 49.9411 37.089 49.0735 33.1508 47.5291C29.2125 45.9847 27 43.89 27 41.7059L35.4 34.647H60.6L69 41.7059" stroke="#F0FFFF" stroke-width="2" stroke-linecap="round"/>
<path d="M31.1991 27.5882V34.6471C31.1991 35.5122 31.6336 36.3689 32.4779 37.1683C33.3222 37.9676 34.5597 38.6939 36.1197 39.3056C37.6797 39.9174 39.5317 40.4027 41.57 40.7338C43.6083 41.0649 45.7929 41.2353 47.9991 41.2353C50.2053 41.2353 52.3899 41.0649 54.4282 40.7338C56.4664 40.4027 58.3185 39.9174 59.8785 39.3056C61.4385 38.6939 62.676 37.9676 63.5203 37.1683C64.3645 36.3689 64.7991 35.5122 64.7991 34.6471V27.5882C64.7991 29.3355 63.0291 31.0113 59.8785 32.2468C56.7279 33.4823 52.4547 34.1765 47.9991 34.1765C43.5435 34.1765 39.2703 33.4823 36.1197 32.2468C32.9691 31.0113 31.1991 29.3355 31.1991 27.5882Z" fill="#6495ED" stroke="#F0FFFF" stroke-width="2" stroke-linecap="round"/>
<path d="M31.1991 27.5882C31.1991 26.7231 31.6336 25.8663 32.4779 25.067C33.3222 24.2677 34.5597 23.5414 36.1197 22.9296C37.6797 22.3179 39.5317 21.8326 41.57 21.5015C43.6083 21.1704 45.7929 21 47.9991 21C50.2053 21 52.3899 21.1704 54.4282 21.5015C56.4664 21.8326 58.3185 22.3179 59.8785 22.9296C61.4385 23.5414 62.676 24.2677 63.5203 25.067C64.3645 25.8663 64.7991 26.7231 64.7991 27.5882C64.7991 29.3355 63.0291 31.0113 59.8785 32.2468C56.7279 33.4824 52.4547 34.1765 47.9991 34.1765C43.5435 34.1765 39.2703 33.4824 36.1197 32.2468C32.9691 31.0113 31.1991 29.3355 31.1991 27.5882Z" fill="#6495ED" stroke="#F0FFFF" stroke-width="2" stroke-linecap="round"/>
<path d="M127.598 36.3391H117.852V62.7259H115.449V36.3391H105.723V34.2884H127.598V36.3391ZM134.277 62.7259H131.934V41.593H134.277V62.7259ZM131.523 35.4798C131.523 35.0371 131.667 34.666 131.953 34.3665C132.24 34.054 132.63 33.8977 133.125 33.8977C133.62 33.8977 134.01 34.054 134.297 34.3665C134.596 34.666 134.746 35.0371 134.746 35.4798C134.746 35.9225 134.596 36.2936 134.297 36.593C134.01 36.8925 133.62 37.0423 133.125 37.0423C132.63 37.0423 132.24 36.8925 131.953 36.593C131.667 36.2936 131.523 35.9225 131.523 35.4798ZM139.707 51.9641C139.707 48.6829 140.436 46.0722 141.895 44.1321C143.366 42.179 145.358 41.2024 147.871 41.2024C150.723 41.2024 152.897 42.3287 154.395 44.5813V32.7259H156.719V62.7259H154.531L154.434 59.9134C152.936 62.0488 150.736 63.1165 147.832 63.1165C145.397 63.1165 143.431 62.1399 141.934 60.1868C140.449 58.2207 139.707 55.5709 139.707 52.2376V51.9641ZM142.07 52.3743C142.07 55.0696 142.611 57.1985 143.691 58.761C144.772 60.3105 146.296 61.0852 148.262 61.0852C151.139 61.0852 153.184 59.8157 154.395 57.2766V47.3548C153.184 44.6074 151.152 43.2337 148.301 43.2337C146.335 43.2337 144.805 44.0084 143.711 45.5579C142.617 47.0944 142.07 49.3665 142.07 52.3743ZM169.57 59.3665L175.742 41.593H178.262L169.238 66.3196L168.77 67.4134C167.611 69.9785 165.82 71.261 163.398 71.261C162.839 71.261 162.24 71.1699 161.602 70.9876L161.582 69.054L162.793 69.1712C163.939 69.1712 164.863 68.8847 165.566 68.3118C166.283 67.7519 166.888 66.7819 167.383 65.4016L168.418 62.5501L160.449 41.593H163.008L169.57 59.3665ZM202.578 53.8587C202.253 56.8535 201.178 59.1451 199.355 60.7337C197.546 62.3222 195.13 63.1165 192.109 63.1165C190 63.1165 188.131 62.5891 186.504 61.5345C184.889 60.4798 183.639 58.9889 182.754 57.0618C181.868 55.1217 181.419 52.9082 181.406 50.4212V46.7298C181.406 44.2037 181.849 41.9641 182.734 40.011C183.62 38.0579 184.889 36.554 186.543 35.4993C188.21 34.4316 190.124 33.8977 192.285 33.8977C195.332 33.8977 197.734 34.7246 199.492 36.3782C201.263 38.0188 202.292 40.291 202.578 43.1946H200.156C199.557 38.3639 196.934 35.9485 192.285 35.9485C189.707 35.9485 187.65 36.9121 186.113 38.8391C184.59 40.7662 183.828 43.429 183.828 46.8274V50.304C183.828 53.5852 184.57 56.2024 186.055 58.1555C187.552 60.1087 189.57 61.0852 192.109 61.0852C194.622 61.0852 196.517 60.4863 197.793 59.2884C199.069 58.0774 199.857 56.2675 200.156 53.8587H202.578ZM210.195 45.1673C210.964 43.9042 211.947 42.9277 213.145 42.2376C214.342 41.5475 215.651 41.2024 217.07 41.2024C219.336 41.2024 221.022 41.8404 222.129 43.1165C223.236 44.3925 223.796 46.3066 223.809 48.8587V62.7259H221.484V48.8391C221.471 46.9511 221.068 45.5449 220.273 44.6204C219.492 43.6959 218.236 43.2337 216.504 43.2337C215.059 43.2337 213.776 43.6894 212.656 44.6009C211.549 45.4993 210.729 46.7167 210.195 48.2532V62.7259H207.871V32.7259H210.195V45.1673ZM238.008 63.1165C236.211 63.1165 234.583 62.6738 233.125 61.7884C231.68 60.9029 230.553 59.6725 229.746 58.097C228.939 56.5084 228.535 54.7311 228.535 52.7649V51.9251C228.535 49.8938 228.926 48.0644 229.707 46.4368C230.501 44.8092 231.602 43.5332 233.008 42.6087C234.414 41.6712 235.937 41.2024 237.578 41.2024C240.143 41.2024 242.174 42.0813 243.672 43.8391C245.182 45.5839 245.937 47.9733 245.937 51.0071V52.3157H230.859V52.7649C230.859 55.1608 231.543 57.1595 232.91 58.761C234.29 60.3496 236.022 61.1438 238.105 61.1438C239.355 61.1438 240.456 60.916 241.406 60.4602C242.37 60.0045 243.242 59.2753 244.023 58.2727L245.488 59.386C243.77 61.873 241.276 63.1165 238.008 63.1165ZM237.578 43.1946C235.82 43.1946 234.336 43.8391 233.125 45.1282C231.927 46.4173 231.198 48.149 230.937 50.3235H243.613V50.0696C243.548 48.0384 242.969 46.3847 241.875 45.1087C240.781 43.8326 239.349 43.1946 237.578 43.1946ZM252.617 41.593L252.695 45.0305C253.477 43.7545 254.453 42.7975 255.625 42.1595C256.797 41.5214 258.099 41.2024 259.531 41.2024C262.865 41.2024 264.98 42.5696 265.879 45.304C266.634 43.9889 267.643 42.9798 268.906 42.2766C270.169 41.5605 271.562 41.2024 273.086 41.2024C277.617 41.2024 279.928 43.6764 280.02 48.6243V62.7259H277.676V48.8001C277.663 46.9121 277.253 45.5123 276.445 44.6009C275.651 43.6894 274.349 43.2337 272.539 43.2337C270.859 43.2597 269.44 43.8066 268.281 44.8743C267.122 45.929 266.478 47.218 266.348 48.7415V62.7259H264.004V48.6243C263.991 46.8144 263.561 45.4667 262.715 44.5813C261.881 43.6829 260.592 43.2337 258.848 43.2337C257.376 43.2337 256.113 43.6569 255.059 44.5032C254.004 45.3365 253.223 46.58 252.715 48.2337V62.7259H250.371V41.593H252.617ZM288.574 62.7259H286.23V41.593H288.574V62.7259ZM285.82 35.4798C285.82 35.0371 285.964 34.666 286.25 34.3665C286.536 34.054 286.927 33.8977 287.422 33.8977C287.917 33.8977 288.307 34.054 288.594 34.3665C288.893 34.666 289.043 35.0371 289.043 35.4798C289.043 35.9225 288.893 36.2936 288.594 36.593C288.307 36.8925 287.917 37.0423 287.422 37.0423C286.927 37.0423 286.536 36.8925 286.25 36.593C285.964 36.2936 285.82 35.9225 285.82 35.4798ZM302.754 61.1438C304.381 61.1438 305.742 60.6881 306.836 59.7766C307.943 58.8522 308.542 57.6608 308.633 56.2024H310.879C310.814 57.4915 310.41 58.6699 309.668 59.7376C308.926 60.7923 307.936 61.6191 306.699 62.218C305.475 62.817 304.16 63.1165 302.754 63.1165C299.98 63.1165 297.78 62.1529 296.152 60.2259C294.538 58.2988 293.73 55.7076 293.73 52.4524V51.7493C293.73 49.666 294.095 47.8235 294.824 46.222C295.553 44.6204 296.595 43.3834 297.949 42.511C299.316 41.6386 300.911 41.2024 302.734 41.2024C305.052 41.2024 306.96 41.8925 308.457 43.2727C309.967 44.6529 310.775 46.4694 310.879 48.722H308.633C308.529 47.0683 307.93 45.7337 306.836 44.718C305.755 43.7024 304.388 43.1946 302.734 43.1946C300.625 43.1946 298.984 43.9563 297.812 45.4798C296.654 47.0032 296.074 49.1386 296.074 51.886V52.5696C296.074 55.2649 296.654 57.3678 297.812 58.8782C298.984 60.3886 300.631 61.1438 302.754 61.1438ZM328.906 62.7259C328.672 62.0618 328.522 61.0787 328.457 59.7766C327.637 60.8444 326.589 61.6712 325.312 62.2571C324.049 62.83 322.708 63.1165 321.289 63.1165C319.258 63.1165 317.611 62.5501 316.348 61.4173C315.098 60.2845 314.473 58.8522 314.473 57.1204C314.473 55.0631 315.326 53.4355 317.031 52.2376C318.75 51.0397 321.139 50.4407 324.199 50.4407H328.437V48.0384C328.437 46.5279 327.969 45.343 327.031 44.4837C326.107 43.6113 324.753 43.1751 322.969 43.1751C321.341 43.1751 319.993 43.5917 318.926 44.4251C317.858 45.2584 317.324 46.261 317.324 47.4329L314.98 47.4134C314.98 45.7337 315.762 44.2819 317.324 43.0579C318.887 41.8209 320.807 41.2024 323.086 41.2024C325.443 41.2024 327.298 41.7949 328.652 42.9798C330.02 44.1516 330.723 45.7923 330.762 47.9016V57.9016C330.762 59.9459 330.977 61.4759 331.406 62.4915V62.7259H328.906ZM321.562 61.0462C323.125 61.0462 324.518 60.6686 325.742 59.9134C326.979 59.1582 327.878 58.149 328.437 56.886V52.2376H324.258C321.927 52.2636 320.104 52.6933 318.789 53.5266C317.474 54.347 316.816 55.4798 316.816 56.9251C316.816 58.11 317.253 59.093 318.125 59.8743C319.01 60.6555 320.156 61.0462 321.562 61.0462ZM339.629 62.7259H337.285V32.7259H339.629V62.7259ZM358.652 57.3548C358.652 56.1959 358.184 55.2649 357.246 54.5618C356.322 53.8587 354.922 53.3118 353.047 52.9212C351.172 52.5175 349.714 52.0618 348.672 51.554C347.643 51.0332 346.875 50.4016 346.367 49.6595C345.872 48.9173 345.625 48.0188 345.625 46.9641C345.625 45.2975 346.322 43.9238 347.715 42.843C349.108 41.7493 350.892 41.2024 353.066 41.2024C355.423 41.2024 357.311 41.7884 358.73 42.9602C360.163 44.1191 360.879 45.636 360.879 47.511H358.535C358.535 46.274 358.014 45.2454 356.973 44.4251C355.944 43.6048 354.642 43.1946 353.066 43.1946C351.53 43.1946 350.293 43.5397 349.355 44.2298C348.431 44.9069 347.969 45.7923 347.969 46.886C347.969 47.9407 348.353 48.761 349.121 49.347C349.902 49.9199 351.315 50.4472 353.359 50.929C355.417 51.4108 356.953 51.9251 357.969 52.472C358.997 53.0188 359.759 53.6764 360.254 54.4446C360.749 55.2128 360.996 56.1438 360.996 57.2376C360.996 59.0214 360.273 60.4472 358.828 61.5149C357.396 62.5826 355.521 63.1165 353.203 63.1165C350.742 63.1165 348.743 62.524 347.207 61.3391C345.684 60.1412 344.922 58.6308 344.922 56.8079H347.266C347.357 58.1751 347.93 59.2428 348.984 60.011C350.052 60.7662 351.458 61.1438 353.203 61.1438C354.831 61.1438 356.146 60.7858 357.148 60.0696C358.151 59.3535 358.652 58.4485 358.652 57.3548Z" fill="#F0FFFF"/>
</svg>
