<svg width="561" height="512" viewBox="0 0 561 512" fill="none" xmlns="http://www.w3.org/2000/svg">
<path d="M100 156C103.315 156 106.495 157.317 108.839 159.661C111.183 162.005 112.5 165.185 112.5 168.5V243.5H187.5C190.815 243.5 193.995 244.817 196.339 247.161C198.683 249.505 200 252.685 200 256C200 259.315 198.683 262.495 196.339 264.839C193.995 267.183 190.815 268.5 187.5 268.5H112.5V343.5C112.5 346.815 111.183 349.995 108.839 352.339C106.495 354.683 103.315 356 100 356C96.6848 356 93.5054 354.683 91.1612 352.339C88.817 349.995 87.5 346.815 87.5 343.5V268.5H12.5C9.18479 268.5 6.00537 267.183 3.66117 264.839C1.31696 262.495 0 259.315 0 256C0 252.685 1.31696 249.505 3.66117 247.161C6.00537 244.817 9.18479 243.5 12.5 243.5H87.5V168.5C87.5 165.185 88.817 162.005 91.1612 159.661C93.5054 157.317 96.6848 156 100 156V156Z" fill="black"/>
<path d="M538.222 73.792L529.195 62.126H529.923C535.555 62.126 540.122 57.559 540.122 51.927V10.199C540.122 4.567 535.555 0 529.923 0H286.078C280.445 0 275.879 4.567 275.879 10.199V51.926C275.879 57.558 280.445 62.125 286.078 62.125H286.805L277.778 73.791C263.098 92.762 255.014 116.418 255.014 140.404V456.487C255.014 487.097 279.917 512 310.527 512H505.474C536.084 512 560.986 487.097 560.986 456.487V140.404C560.985 116.419 552.902 92.762 538.222 73.792ZM296.277 20.398H519.723V41.727H296.277V20.398ZM505.473 491.602H310.527C291.165 491.602 275.412 475.85 275.412 456.487V140.404C275.412 120.913 281.981 101.69 293.909 86.276L312.596 62.125H503.402L522.089 86.276C534.017 101.69 540.586 120.914 540.586 140.404V456.486C540.587 475.849 524.835 491.602 505.473 491.602Z" fill="black"/>
<path d="M416.159 249.88H352.414C346.781 249.88 342.215 254.447 342.215 260.079C342.215 265.711 346.781 270.278 352.414 270.278H416.159C421.791 270.278 426.358 265.711 426.358 260.079C426.359 254.448 421.791 249.88 416.159 249.88Z" fill="black"/>
<path d="M463.586 249.88H457.976C452.344 249.88 447.777 254.447 447.777 260.079C447.777 265.711 452.344 270.278 457.976 270.278H463.586C469.218 270.278 473.785 265.711 473.785 260.079C473.785 254.448 469.218 249.88 463.586 249.88Z" fill="black"/>
<path d="M321.857 310.347V310.847H322.357H493.143H493.643H493.644L493.643 310.347H494.143V210.78V210.28H493.643H322.357H321.857V210.78V310.347ZM312.158 190.881H503.843C509.199 190.881 513.542 195.225 513.542 200.581V320.546C513.542 325.902 509.199 330.245 503.843 330.245H312.158C306.801 330.245 302.459 325.902 302.459 320.546V200.58C302.459 195.224 306.801 190.881 312.158 190.881Z" fill="black" stroke="black"/>
</svg>
