<svg width="44" height="79" viewBox="0 0 44 79" fill="none" xmlns="http://www.w3.org/2000/svg">
<path d="M1 22.1321V69.6792C1 71.886 3.21249 74.0025 7.15076 75.5629C11.089 77.1233 16.4305 78 22 78C27.5695 78 32.911 77.1233 36.8492 75.5629C40.7875 74.0025 43 71.886 43 69.6792V38.0604C42.9994 39.7708 41.6685 41.4396 39.1884 42.8396C36.7083 44.2396 33.1996 45.3027 29.14 45.8843V61.5748C33.1996 60.9933 36.7083 59.9302 39.1884 58.5302C41.6685 57.1302 42.9994 55.4614 43 53.7509V22.1321C43 24.3389 40.7875 26.4553 36.8492 28.0157C32.911 29.5762 27.5695 30.4528 22 30.4528C16.4305 30.4528 11.089 29.5762 7.15076 28.0157C3.21249 26.4553 1 24.3389 1 22.1321L9.4 15H34.6L43 22.1321" fill="#6495ED"/>
<path d="M1 22.1321V69.6792C1 71.886 3.21249 74.0025 7.15076 75.5629C11.089 77.1233 16.4305 78 22 78C27.5695 78 32.911 77.1233 36.8492 75.5629C40.7875 74.0025 43 71.886 43 69.6792V38.0604C42.9994 39.7708 41.6685 41.4396 39.1884 42.8396C36.7083 44.2396 33.1996 45.3027 29.14 45.8843V61.5748C33.1996 60.9933 36.7083 59.9302 39.1884 58.5302C41.6685 57.1302 42.9994 55.4614 43 53.7509V22.1321M1 22.1321C1 24.3389 3.21249 26.4553 7.15076 28.0157C11.089 29.5762 16.4305 30.4528 22 30.4528C27.5695 30.4528 32.911 29.5762 36.8492 28.0157C40.7875 26.4553 43 24.3389 43 22.1321M1 22.1321L9.4 15H34.6L43 22.1321" stroke="#F0FFFF" stroke-width="2"/>
<path d="M5.1991 7.5882V14.6471C5.1991 15.5122 5.6336 16.3689 6.4779 17.1683C7.3222 17.9676 8.5597 18.6939 10.1197 19.3056C11.6797 19.9174 13.5317 20.4027 15.57 20.7338C17.6083 21.0649 19.7929 21.2353 21.9991 21.2353C24.2053 21.2353 26.3899 21.0649 28.4282 20.7338C30.4664 20.4027 32.3185 19.9174 33.8785 19.3056C35.4385 18.6939 36.676 17.9676 37.5203 17.1683C38.3645 16.3689 38.7991 15.5122 38.7991 14.6471V7.5882C38.7991 9.3355 37.0291 11.0113 33.8785 12.2468C30.7279 13.4823 26.4547 14.1765 21.9991 14.1765C17.5435 14.1765 13.2703 13.4823 10.1197 12.2468C6.9691 11.0113 5.1991 9.3355 5.1991 7.5882Z" fill="#6495ED" stroke="#F0FFFF" stroke-width="2" stroke-linecap="round"/>
<path d="M5.1991 7.5882C5.1991 6.7231 5.6336 5.8663 6.4779 5.067C7.3222 4.2677 8.5597 3.5414 10.1197 2.9296C11.6797 2.3179 13.5317 1.8326 15.57 1.5015C17.6083 1.1704 19.7929 1 21.9991 1C24.2053 1 26.3899 1.1704 28.4282 1.5015C30.4664 1.8326 32.3185 2.3179 33.8785 2.9296C35.4385 3.5414 36.676 4.2677 37.5203 5.067C38.3645 5.8663 38.7991 6.7231 38.7991 7.5882C38.7991 9.3355 37.0291 11.0113 33.8785 12.2468C30.7279 13.4824 26.4547 14.1765 21.9991 14.1765C17.5435 14.1765 13.2703 13.4824 10.1197 12.2468C6.9691 11.0113 5.1991 9.3355 5.1991 7.5882Z" fill="#6495ED" stroke="#F0FFFF" stroke-width="2" stroke-linecap="round"/>
</svg>
