<?xml version="1.0" encoding="UTF-8" standalone="no"?>
<svg  version="1.1" width="1280" height="1024"
        viewBox="0 0 1280 1024"
     baseProfile="full"
     xmlns="http://www.w3.org/2000/svg"
     xmlns:xlink="http://www.w3.org/1999/xlink"
     xmlns:ev="http://www.w3.org/2001/xml-events">
                  
    <title>Jar</title>
     <desc>
       Jar
     </desc>             
       
        <defs>
               
        </defs>
   
            <g id = "gr1">
                <path 
                    d="M 50 300
                       v 200
                       a 100,35 180 1 0 200,0
                       v -133
                       a 100,35 0 0 1 -66,32.91
                       v 66
                       a 100,35 0 0 0 66,-32.91
                       v -133
                       a 100,35 180 1 1 -200,0
                       l 40 -30
                       h 120
                       l 40 30
                       "
                    stroke-width="1"
                    stroke="#000000"
                    fill="#FFFFFF"
                    />
                <path 
                    d="M 70 240
                       v 30
                       a 80,28 180 1 0 160,0
                       v -30
                       a 80,28 180 1 1 -160,0
                       "
                    stroke-width="1"
                    stroke="#000000"
                    fill="#ffffff"
                    >
                </path>
                <path 
                    d="M 70 240
                       a 80,28 180 1 1 160,0
                       a 80,28 180 1 1 -160,0
                       "
                    stroke-width="1"
                    stroke="#000000"
                    fill="#ffffff"
                    >
                </path>
            </g>
 </svg>
 