<svg width="361" height="99" viewBox="0 0 361 99" fill="none" xmlns="http://www.w3.org/2000/svg">
<path d="M126.875 31.6132H117.129V58H114.726V31.6132H105V29.5625H126.875V31.6132ZM133.554 58H131.211V36.8671H133.554V58ZM130.8 30.7539C130.8 30.3112 130.944 29.9401 131.23 29.6406C131.517 29.3281 131.907 29.1718 132.402 29.1718C132.897 29.1718 133.287 29.3281 133.574 29.6406C133.873 29.9401 134.023 30.3112 134.023 30.7539C134.023 31.1966 133.873 31.5677 133.574 31.8671C133.287 32.1666 132.897 32.3164 132.402 32.3164C131.907 32.3164 131.517 32.1666 131.23 31.8671C130.944 31.5677 130.8 31.1966 130.8 30.7539ZM138.984 47.2382C138.984 43.957 139.713 41.3463 141.172 39.4062C142.643 37.4531 144.635 36.4765 147.148 36.4765C150 36.4765 152.174 37.6028 153.672 39.8554V28H155.996V58H153.808L153.711 55.1875C152.213 57.3229 150.013 58.3906 147.109 58.3906C144.674 58.3906 142.708 57.414 141.211 55.4609C139.726 53.4948 138.984 50.845 138.984 47.5117V47.2382ZM141.347 47.6484C141.347 50.3437 141.888 52.4726 142.968 54.0351C144.049 55.5846 145.573 56.3593 147.539 56.3593C150.416 56.3593 152.461 55.0898 153.672 52.5507V42.6289C152.461 39.8815 150.429 38.5078 147.578 38.5078C145.612 38.5078 144.082 39.2825 142.988 40.832C141.894 42.3685 141.347 44.6406 141.347 47.6484ZM168.847 54.6406L175.019 36.8671H177.539L168.515 61.5937L168.047 62.6875C166.888 65.2526 165.097 66.5351 162.675 66.5351C162.116 66.5351 161.517 66.444 160.879 66.2617L160.859 64.3281L162.07 64.4453C163.216 64.4453 164.14 64.1588 164.843 63.5859C165.56 63.026 166.165 62.056 166.66 60.6757L167.695 57.8242L159.726 36.8671H162.285L168.847 54.6406ZM201.855 49.1328C201.53 52.1276 200.455 54.4192 198.632 56.0078C196.823 57.5963 194.407 58.3906 191.386 58.3906C189.277 58.3906 187.408 57.8632 185.781 56.8086C184.166 55.7539 182.916 54.263 182.031 52.3359C181.145 50.3958 180.696 48.1823 180.683 45.6953V42.0039C180.683 39.4778 181.126 37.2382 182.011 35.2851C182.897 33.332 184.166 31.8281 185.82 30.7734C187.487 29.7057 189.401 29.1718 191.562 29.1718C194.609 29.1718 197.011 29.9987 198.769 31.6523C200.54 33.2929 201.569 35.5651 201.855 38.4687H199.433C198.834 33.638 196.211 31.2226 191.562 31.2226C188.984 31.2226 186.927 32.1862 185.39 34.1132C183.867 36.0403 183.105 38.7031 183.105 42.1015V45.5781C183.105 48.8593 183.847 51.4765 185.332 53.4296C186.829 55.3828 188.847 56.3593 191.386 56.3593C193.899 56.3593 195.794 55.7604 197.07 54.5625C198.346 53.3515 199.134 51.5416 199.433 49.1328H201.855ZM209.472 40.4414C210.241 39.1783 211.224 38.2018 212.422 37.5117C213.619 36.8216 214.928 36.4765 216.347 36.4765C218.613 36.4765 220.299 37.1145 221.406 38.3906C222.513 39.6666 223.073 41.5807 223.086 44.1328V58H220.761V44.1132C220.748 42.2252 220.345 40.819 219.55 39.8945C218.769 38.97 217.513 38.5078 215.781 38.5078C214.336 38.5078 213.053 38.9635 211.933 39.875C210.826 40.7734 210.006 41.9908 209.472 43.5273V58H207.148V28H209.472V40.4414ZM237.285 58.3906C235.488 58.3906 233.86 57.9479 232.402 57.0625C230.957 56.177 229.83 54.9466 229.023 53.3711C228.216 51.7825 227.812 50.0052 227.812 48.039V47.1992C227.812 45.1679 228.203 43.3385 228.984 41.7109C229.778 40.0833 230.879 38.8073 232.285 37.8828C233.691 36.9453 235.214 36.4765 236.855 36.4765C239.42 36.4765 241.451 37.3554 242.949 39.1132C244.459 40.858 245.214 43.2474 245.214 46.2812V47.5898H230.136V48.039C230.136 50.4349 230.82 52.4336 232.187 54.0351C233.567 55.6237 235.299 56.4179 237.382 56.4179C238.632 56.4179 239.733 56.1901 240.683 55.7343C241.647 55.2786 242.519 54.5494 243.3 53.5468L244.765 54.6601C243.047 57.1471 240.553 58.3906 237.285 58.3906ZM236.855 38.4687C235.097 38.4687 233.613 39.1132 232.402 40.4023C231.204 41.6914 230.475 43.4231 230.214 45.5976H242.89V45.3437C242.825 43.3125 242.246 41.6588 241.152 40.3828C240.058 39.1067 238.626 38.4687 236.855 38.4687ZM251.894 36.8671L251.972 40.3046C252.754 39.0286 253.73 38.0716 254.902 37.4336C256.074 36.7955 257.376 36.4765 258.808 36.4765C262.142 36.4765 264.257 37.8437 265.156 40.5781C265.911 39.263 266.92 38.2539 268.183 37.5507C269.446 36.8346 270.839 36.4765 272.363 36.4765C276.894 36.4765 279.205 38.9505 279.297 43.8984V58H276.953V44.0742C276.94 42.1862 276.53 40.7864 275.722 39.875C274.928 38.9635 273.626 38.5078 271.816 38.5078C270.136 38.5338 268.717 39.0807 267.558 40.1484C266.399 41.2031 265.755 42.4921 265.625 44.0156V58H263.281V43.8984C263.268 42.0885 262.838 40.7408 261.992 39.8554C261.158 38.957 259.869 38.5078 258.125 38.5078C256.653 38.5078 255.39 38.931 254.336 39.7773C253.281 40.6106 252.5 41.8541 251.992 43.5078V58H249.648V36.8671H251.894ZM287.851 58H285.507V36.8671H287.851V58ZM285.097 30.7539C285.097 30.3112 285.241 29.9401 285.527 29.6406C285.813 29.3281 286.204 29.1718 286.699 29.1718C287.194 29.1718 287.584 29.3281 287.871 29.6406C288.17 29.9401 288.32 30.3112 288.32 30.7539C288.32 31.1966 288.17 31.5677 287.871 31.8671C287.584 32.1666 287.194 32.3164 286.699 32.3164C286.204 32.3164 285.813 32.1666 285.527 31.8671C285.241 31.5677 285.097 31.1966 285.097 30.7539ZM302.031 56.4179C303.658 56.4179 305.019 55.9622 306.113 55.0507C307.22 54.1263 307.819 52.9349 307.91 51.4765H310.156C310.091 52.7656 309.687 53.944 308.945 55.0117C308.203 56.0664 307.213 56.8932 305.976 57.4921C304.752 58.0911 303.437 58.3906 302.031 58.3906C299.257 58.3906 297.057 57.427 295.429 55.5C293.815 53.5729 293.007 50.9817 293.007 47.7265V47.0234C293.007 44.9401 293.372 43.0976 294.101 41.4961C294.83 39.8945 295.872 38.6575 297.226 37.7851C298.593 36.9127 300.188 36.4765 302.011 36.4765C304.329 36.4765 306.237 37.1666 307.734 38.5468C309.244 39.927 310.052 41.7435 310.156 43.9961H307.91C307.806 42.3424 307.207 41.0078 306.113 39.9921C305.032 38.9765 303.665 38.4687 302.011 38.4687C299.902 38.4687 298.261 39.2304 297.089 40.7539C295.931 42.2773 295.351 44.4127 295.351 47.1601V47.8437C295.351 50.539 295.931 52.6419 297.089 54.1523C298.261 55.6627 299.908 56.4179 302.031 56.4179ZM328.183 58C327.949 57.3359 327.799 56.3528 327.734 55.0507C326.914 56.1185 325.866 56.9453 324.589 57.5312C323.326 58.1041 321.985 58.3906 320.566 58.3906C318.535 58.3906 316.888 57.8242 315.625 56.6914C314.375 55.5586 313.75 54.1263 313.75 52.3945C313.75 50.3372 314.603 48.7096 316.308 47.5117C318.027 46.3138 320.416 45.7148 323.476 45.7148H327.714V43.3125C327.714 41.802 327.246 40.6171 326.308 39.7578C325.384 38.8854 324.03 38.4492 322.246 38.4492C320.618 38.4492 319.27 38.8658 318.203 39.6992C317.135 40.5325 316.601 41.5351 316.601 42.707L314.257 42.6875C314.257 41.0078 315.039 39.556 316.601 38.332C318.164 37.095 320.084 36.4765 322.363 36.4765C324.72 36.4765 326.575 37.069 327.929 38.2539C329.297 39.4257 330 41.0664 330.039 43.1757V53.1757C330.039 55.22 330.254 56.75 330.683 57.7656V58H328.183ZM320.839 56.3203C322.402 56.3203 323.795 55.9427 325.019 55.1875C326.256 54.4323 327.155 53.4231 327.714 52.1601V47.5117H323.535C321.204 47.5377 319.381 47.9674 318.066 48.8007C316.751 49.6211 316.093 50.7539 316.093 52.1992C316.093 53.3841 316.53 54.3671 317.402 55.1484C318.287 55.9296 319.433 56.3203 320.839 56.3203ZM338.906 58H336.562V28H338.906V58ZM357.929 52.6289C357.929 51.47 357.461 50.539 356.523 49.8359C355.599 49.1328 354.199 48.5859 352.324 48.1953C350.449 47.7916 348.991 47.3359 347.949 46.8281C346.92 46.3073 346.152 45.6757 345.644 44.9336C345.149 44.1914 344.902 43.2929 344.902 42.2382C344.902 40.5716 345.599 39.1979 346.992 38.1171C348.385 37.0234 350.169 36.4765 352.343 36.4765C354.7 36.4765 356.588 37.0625 358.007 38.2343C359.44 39.3932 360.156 40.9101 360.156 42.7851H357.812C357.812 41.5481 357.291 40.5195 356.25 39.6992C355.221 38.8789 353.919 38.4687 352.343 38.4687C350.807 38.4687 349.57 38.8138 348.632 39.5039C347.708 40.181 347.246 41.0664 347.246 42.1601C347.246 43.2148 347.63 44.0351 348.398 44.6211C349.179 45.194 350.592 45.7213 352.636 46.2031C354.694 46.6849 356.23 47.1992 357.246 47.7461C358.274 48.2929 359.036 48.9505 359.531 49.7187C360.026 50.4869 360.273 51.4179 360.273 52.5117C360.273 54.2955 359.55 55.7213 358.105 56.789C356.673 57.8567 354.798 58.3906 352.48 58.3906C350.019 58.3906 348.02 57.7981 346.484 56.6132C344.961 55.4153 344.199 53.9049 344.199 52.082H346.543C346.634 53.4492 347.207 54.5169 348.261 55.2851C349.329 56.0403 350.735 56.4179 352.48 56.4179C354.108 56.4179 355.423 56.0599 356.425 55.3437C357.428 54.6276 357.929 53.7226 357.929 52.6289Z" fill="#F0FFFF"/>
<path d="M20.6196 8L39.2391 22.25V32.5H2L2.00003 22.25L20.6196 8Z" fill="#6495ED"/>
<path d="M74.6196 8L93.2391 22.25V32.5H56L56 22.25L74.6196 8Z" fill="#6495ED"/>
<path d="M1 22.1321V69.6792C1 71.886 3.21249 74.0025 7.15076 75.5629C11.089 77.1233 16.4305 78 22 78C27.5695 78 32.911 77.1233 36.8492 75.5629C40.7875 74.0025 43 71.886 43 69.6792V38.0604C42.9994 39.7708 41.6685 41.4396 39.1884 42.8396C36.7083 44.2396 33.1996 45.3027 29.14 45.8843V61.5748C33.1996 60.9933 36.7083 59.9302 39.1884 58.5302C41.6685 57.1302 42.9994 55.4614 43 53.7509V22.1321C43 24.3389 40.7875 26.4553 36.8492 28.0157C32.911 29.5762 27.5695 30.4528 22 30.4528C16.4305 30.4528 11.089 29.5762 7.15076 28.0157C3.21249 26.4553 1 24.3389 1 22.1321L9.4 15H34.6L43 22.1321" fill="#6495ED"/>
<path d="M1 22.1321V69.6792C1 71.886 3.21249 74.0025 7.15076 75.5629C11.089 77.1233 16.4305 78 22 78C27.5695 78 32.911 77.1233 36.8492 75.5629C40.7875 74.0025 43 71.886 43 69.6792V38.0604C42.9994 39.7708 41.6685 41.4396 39.1884 42.8396C36.7083 44.2396 33.1996 45.3027 29.14 45.8843V61.5748C33.1996 60.9933 36.7083 59.9302 39.1884 58.5302C41.6685 57.1302 42.9994 55.4614 43 53.7509V22.1321M1 22.1321C1 24.3389 3.21249 26.4553 7.15076 28.0157C11.089 29.5762 16.4305 30.4528 22 30.4528C27.5695 30.4528 32.911 29.5762 36.8492 28.0157C40.7875 26.4553 43 24.3389 43 22.1321M1 22.1321L9.4 15H34.6L43 22.1321" stroke="#F0FFFF" stroke-width="2"/>
<path d="M5.1991 7.5882V14.6471C5.1991 15.5122 5.6336 16.3689 6.4779 17.1683C7.3222 17.9676 8.5597 18.6939 10.1197 19.3056C11.6797 19.9174 13.5317 20.4027 15.57 20.7338C17.6083 21.0649 19.7929 21.2353 21.9991 21.2353C24.2053 21.2353 26.3899 21.0649 28.4282 20.7338C30.4664 20.4027 32.3185 19.9174 33.8785 19.3056C35.4385 18.6939 36.676 17.9676 37.5203 17.1683C38.3645 16.3689 38.7991 15.5122 38.7991 14.6471V7.5882C38.7991 9.3355 37.0291 11.0113 33.8785 12.2468C30.7279 13.4823 26.4547 14.1765 21.9991 14.1765C17.5435 14.1765 13.2703 13.4823 10.1197 12.2468C6.9691 11.0113 5.1991 9.3355 5.1991 7.5882Z" fill="#6495ED" stroke="#F0FFFF" stroke-width="2" stroke-linecap="round"/>
<path d="M5.1991 7.5882C5.1991 6.7231 5.6336 5.8663 6.4779 5.067C7.3222 4.2677 8.5597 3.5414 10.1197 2.9296C11.6797 2.3179 13.5317 1.8326 15.57 1.5015C17.6083 1.1704 19.7929 1 21.9991 1C24.2053 1 26.3899 1.1704 28.4282 1.5015C30.4664 1.8326 32.3185 2.3179 33.8785 2.9296C35.4385 3.5414 36.676 4.2677 37.5203 5.067C38.3645 5.8663 38.7991 6.7231 38.7991 7.5882C38.7991 9.3355 37.0291 11.0113 33.8785 12.2468C30.7279 13.4824 26.4547 14.1765 21.9991 14.1765C17.5435 14.1765 13.2703 13.4824 10.1197 12.2468C6.9691 11.0113 5.1991 9.3355 5.1991 7.5882Z" fill="#6495ED" stroke="#F0FFFF" stroke-width="2" stroke-linecap="round"/>
<path d="M52 22.1321V69.6792C52 71.886 54.2125 74.0025 58.1508 75.5629C62.089 77.1233 67.4305 78 73 78C78.5695 78 83.911 77.1233 87.8492 75.5629C91.7875 74.0025 94 71.886 94 69.6792V38.0604C93.9994 39.7708 92.6685 41.4396 90.1884 42.8396C87.7083 44.2396 84.1996 45.3027 80.14 45.8843V61.5748C84.1996 60.9933 87.7083 59.9302 90.1884 58.5302C92.6685 57.1302 93.9994 55.4614 94 53.7509V22.1321C94 24.3389 91.7875 26.4553 87.8492 28.0157C83.911 29.5762 78.5695 30.4528 73 30.4528C67.4305 30.4528 62.089 29.5762 58.1508 28.0157C54.2125 26.4553 52 24.3389 52 22.1321L60.4 15H85.6L94 22.1321" fill="#6495ED"/>
<path d="M52 22.1321V69.6792C52 71.886 54.2125 74.0025 58.1508 75.5629C62.089 77.1233 67.4305 78 73 78C78.5695 78 83.911 77.1233 87.8492 75.5629C91.7875 74.0025 94 71.886 94 69.6792V38.0604C93.9994 39.7708 92.6685 41.4396 90.1884 42.8396C87.7083 44.2396 84.1996 45.3027 80.14 45.8843V61.5748C84.1996 60.9933 87.7083 59.9302 90.1884 58.5302C92.6685 57.1302 93.9994 55.4614 94 53.7509V22.1321M52 22.1321C52 24.3389 54.2125 26.4553 58.1508 28.0157C62.089 29.5762 67.4305 30.4528 73 30.4528C78.5695 30.4528 83.911 29.5762 87.8492 28.0157C91.7875 26.4553 94 24.3389 94 22.1321M52 22.1321L60.4 15H85.6L94 22.1321" stroke="#F0FFFF" stroke-width="2"/>
<path d="M56.1991 7.5882V14.6471C56.1991 15.5122 56.6336 16.3689 57.4779 17.1683C58.3222 17.9676 59.5597 18.6939 61.1197 19.3056C62.6797 19.9174 64.5317 20.4027 66.57 20.7338C68.6083 21.0649 70.7929 21.2353 72.9991 21.2353C75.2053 21.2353 77.3899 21.0649 79.4282 20.7338C81.4664 20.4027 83.3185 19.9174 84.8785 19.3056C86.4385 18.6939 87.676 17.9676 88.5203 17.1683C89.3645 16.3689 89.7991 15.5122 89.7991 14.6471V7.5882C89.7991 9.3355 88.0291 11.0113 84.8785 12.2468C81.7279 13.4823 77.4547 14.1765 72.9991 14.1765C68.5435 14.1765 64.2703 13.4823 61.1197 12.2468C57.9691 11.0113 56.1991 9.3355 56.1991 7.5882Z" fill="#6495ED" stroke="#F0FFFF" stroke-width="2" stroke-linecap="round"/>
<path d="M56.1991 7.5882C56.1991 6.7231 56.6336 5.8663 57.4779 5.067C58.3222 4.2677 59.5597 3.5414 61.1197 2.9296C62.6797 2.3179 64.5317 1.8326 66.57 1.5015C68.6083 1.1704 70.7929 1 72.9991 1C75.2053 1 77.3899 1.1704 79.4282 1.5015C81.4664 1.8326 83.3185 2.3179 84.8785 2.9296C86.4385 3.5414 87.676 4.2677 88.5203 5.067C89.3645 5.8663 89.7991 6.7231 89.7991 7.5882C89.7991 9.3355 88.0291 11.0113 84.8785 12.2468C81.7279 13.4824 77.4547 14.1765 72.9991 14.1765C68.5435 14.1765 64.2703 13.4824 61.1197 12.2468C57.9691 11.0113 56.1991 9.3355 56.1991 7.5882Z" fill="#6495ED" stroke="#F0FFFF" stroke-width="2" stroke-linecap="round"/>
<path d="M48.1195 29.25L66.7391 43.5V53.75H29.5L29.5 43.5L48.1195 29.25Z" fill="#6495ED"/>
<path d="M27 42.1321V89.6792C27 91.886 29.2125 94.0025 33.1508 95.5629C37.089 97.1233 42.4305 98 48 98C53.5695 98 58.911 97.1233 62.8492 95.5629C66.7875 94.0025 69 91.886 69 89.6792V58.0604C68.9994 59.7708 67.6685 61.4396 65.1884 62.8396C62.7083 64.2396 59.1996 65.3027 55.14 65.8843V81.5748C59.1996 80.9933 62.7083 79.9302 65.1884 78.5302C67.6685 77.1302 68.9994 75.4614 69 73.7509V42.1321C69 44.3389 66.7875 46.4553 62.8492 48.0157C58.911 49.5762 53.5695 50.4528 48 50.4528C42.4305 50.4528 37.089 49.5762 33.1508 48.0157C29.2125 46.4553 27 44.3389 27 42.1321L35.4 35H60.6L69 42.1321" fill="#6495ED"/>
<path d="M27 42.1321V89.6792C27 91.886 29.2125 94.0025 33.1508 95.5629C37.089 97.1233 42.4305 98 48 98C53.5695 98 58.911 97.1233 62.8492 95.5629C66.7875 94.0025 69 91.886 69 89.6792V58.0604C68.9994 59.7708 67.6685 61.4396 65.1884 62.8396C62.7083 64.2396 59.1996 65.3027 55.14 65.8843V81.5748C59.1996 80.9933 62.7083 79.9302 65.1884 78.5302C67.6685 77.1302 68.9994 75.4614 69 73.7509V42.1321M27 42.1321C27 44.3389 29.2125 46.4553 33.1508 48.0157C37.089 49.5762 42.4305 50.4528 48 50.4528C53.5695 50.4528 58.911 49.5762 62.8492 48.0157C66.7875 46.4553 69 44.3389 69 42.1321M27 42.1321L35.4 35H60.6L69 42.1321" stroke="#F0FFFF" stroke-width="2"/>
<path d="M31.1991 27.5882V34.6471C31.1991 35.5122 31.6336 36.3689 32.4779 37.1683C33.3222 37.9676 34.5597 38.6939 36.1197 39.3056C37.6797 39.9174 39.5317 40.4027 41.57 40.7338C43.6083 41.0649 45.7929 41.2353 47.9991 41.2353C50.2053 41.2353 52.3899 41.0649 54.4282 40.7338C56.4664 40.4027 58.3185 39.9174 59.8785 39.3056C61.4385 38.6939 62.676 37.9676 63.5203 37.1683C64.3645 36.3689 64.7991 35.5122 64.7991 34.6471V27.5882C64.7991 29.3355 63.0291 31.0113 59.8785 32.2468C56.7279 33.4823 52.4547 34.1765 47.9991 34.1765C43.5435 34.1765 39.2703 33.4823 36.1197 32.2468C32.9691 31.0113 31.1991 29.3355 31.1991 27.5882Z" fill="#6495ED" stroke="#F0FFFF" stroke-width="2" stroke-linecap="round"/>
<path d="M31.1991 27.5882C31.1991 26.7231 31.6336 25.8663 32.4779 25.067C33.3222 24.2677 34.5597 23.5414 36.1197 22.9296C37.6797 22.3179 39.5317 21.8326 41.57 21.5015C43.6083 21.1704 45.7929 21 47.9991 21C50.2053 21 52.3899 21.1704 54.4282 21.5015C56.4664 21.8326 58.3185 22.3179 59.8785 22.9296C61.4385 23.5414 62.676 24.2677 63.5203 25.067C64.3645 25.8663 64.7991 26.7231 64.7991 27.5882C64.7991 29.3355 63.0291 31.0113 59.8785 32.2468C56.7279 33.4824 52.4547 34.1765 47.9991 34.1765C43.5435 34.1765 39.2703 33.4824 36.1197 32.2468C32.9691 31.0113 31.1991 29.3355 31.1991 27.5882Z" fill="#6495ED" stroke="#F0FFFF" stroke-width="2" stroke-linecap="round"/>
</svg>
