<svg width="20" height="14" viewBox="0 0 20 14" fill="none" xmlns="http://www.w3.org/2000/svg">
<path fill-rule="evenodd" clip-rule="evenodd" d="M14.5006 14.0009C14.6332 14.0009 14.7604 13.9482 14.8542 13.8544C14.948 13.7607 15.0006 13.6335 15.0006 13.5009V1.70789L18.1466 4.85489C18.2405 4.94878 18.3679 5.00153 18.5006 5.00153C18.6334 5.00153 18.7607 4.94878 18.8546 4.85489C18.9485 4.76101 19.0013 4.63367 19.0013 4.50089C19.0013 4.36812 18.9485 4.24078 18.8546 4.14689L14.8546 0.146894C14.8082 0.100331 14.753 0.0633877 14.6923 0.0381812C14.6315 0.0129748 14.5664 0 14.5006 0C14.4349 0 14.3697 0.0129748 14.309 0.0381812C14.2483 0.0633877 14.1931 0.100331 14.1466 0.146894L10.1466 4.14689C10.1001 4.19338 10.0633 4.24857 10.0381 4.30931C10.0129 4.37005 10 4.43515 10 4.50089C10 4.63367 10.0527 4.76101 10.1466 4.85489C10.2405 4.94878 10.3679 5.00153 10.5006 5.00153C10.6334 5.00153 10.7607 4.94878 10.8546 4.85489L14.0006 1.70789V13.5009C14.0006 13.6335 14.0533 13.7607 14.1471 13.8544C14.2408 13.9482 14.368 14.0009 14.5006 14.0009Z" fill="black"/>
<path fill-rule="evenodd" clip-rule="evenodd" d="M4.50063 14.0009C4.63324 14.0009 4.76042 13.9482 4.85419 13.8544C4.94795 13.7607 5.00063 13.6335 5.00063 13.5009V1.70789L8.14663 4.85489C8.24052 4.94878 8.36786 5.00153 8.50063 5.00153C8.63341 5.00153 8.76074 4.94878 8.85463 4.85489C8.94852 4.76101 9.00126 4.63367 9.00126 4.50089C9.00126 4.36812 8.94852 4.24078 8.85463 4.14689L4.85463 0.146894C4.80819 0.100331 4.75301 0.0633877 4.69226 0.0381812C4.63152 0.0129748 4.5664 0 4.50063 0C4.43486 0 4.36974 0.0129748 4.309 0.0381812C4.24825 0.0633877 4.19308 0.100331 4.14663 0.146894L0.146631 4.14689C0.100144 4.19338 0.0632674 4.24857 0.0381083 4.30931C0.0129493 4.37005 0 4.43515 0 4.50089C0 4.63367 0.0527448 4.76101 0.146631 4.85489C0.240518 4.94878 0.367856 5.00153 0.500632 5.00153C0.633407 5.00153 0.760745 4.94878 0.854632 4.85489L4.00063 1.70789V13.5009C4.00063 13.6335 4.05331 13.7607 4.14708 13.8544C4.24085 13.9482 4.36802 14.0009 4.50063 14.0009Z" fill="black"/>
</svg>
