<svg width="23" height="16" viewBox="0 0 23 16" fill="none" xmlns="http://www.w3.org/2000/svg">
<path d="M16.5 10C16.224 10 16 9.552 16 9C16 8.448 16.224 8 16.5 8C16.776 8 17 8.448 17 9C17 9.552 16.776 10 16.5 10Z" fill="black"/>
<path d="M18.828 0.121999C18.8821 0.169003 18.9254 0.22708 18.9551 0.292297C18.9848 0.357514 19.0001 0.428348 19 0.499999V0.999999H19.5C19.8978 0.999999 20.2794 1.15803 20.5607 1.43934C20.842 1.72064 21 2.10217 21 2.5V15H22.5C22.6326 15 22.7598 15.0527 22.8536 15.1464C22.9473 15.2402 23 15.3674 23 15.5C23 15.6326 22.9473 15.7598 22.8536 15.8536C22.7598 15.9473 22.6326 16 22.5 16H9.5C9.36739 16 9.24021 15.9473 9.14645 15.8536C9.05268 15.7598 9 15.6326 9 15.5C9 15.3674 9.05268 15.2402 9.14645 15.1464C9.24021 15.0527 9.36739 15 9.5 15H11V1.5C11 1.37953 11.0435 1.26312 11.1225 1.17217C11.2015 1.08123 11.3107 1.02186 11.43 1.005L18.43 0.00499925C18.5008 -0.0051188 18.573 9.05506e-05 18.6417 0.0202752C18.7104 0.0404599 18.7739 0.0751494 18.828 0.121999V0.121999ZM19.5 2H19V15H20V2.5C20 2.36739 19.9473 2.24021 19.8536 2.14645C19.7598 2.05268 19.6326 2 19.5 2V2ZM12 1.934V15H18V1.077L12 1.934Z" fill="black"/>
<line x1="4.5" y1="4.5" x2="4.5" y2="12.5" stroke="black" stroke-linecap="round"/>
<line x1="0.5" y1="8.5" x2="8.5" y2="8.5" stroke="black" stroke-linecap="round"/>
</svg>
