<svg width="112" height="117" viewBox="0 0 112 117" fill="none" xmlns="http://www.w3.org/2000/svg">
<rect width="112" height="117" fill="#6495ED"/>
<path d="M56.1509 33.7792L79.6469 51.1753V63.6883H32.6547L32.6548 51.1753L56.1509 33.7792Z" fill="#6495ED"/>
<path d="M29.5 37.2976V95.3422C29.5 98.0362 32.292 100.62 37.2617 102.525C42.2314 104.43 48.9718 105.5 56 105.5C63.0282 105.5 69.7686 104.43 74.7383 102.525C79.708 100.62 82.5 98.0362 82.5 95.3422V56.7425C82.4992 58.8306 80.8197 60.8678 77.6901 62.5769C74.5605 64.286 70.1329 65.5838 65.01 66.2938V85.4485C70.1329 84.7386 74.5605 83.4407 77.6901 81.7316C80.8197 80.0226 82.4992 77.9853 82.5 75.8973V37.2976C82.5 39.9916 79.708 42.5753 74.7383 44.4803C69.7686 46.3852 63.0282 47.4554 56 47.4554C48.9718 47.4554 42.2314 46.3852 37.2617 44.4803C32.292 42.5753 29.5 39.9916 29.5 37.2976L40.1 28.5909H71.9L82.5 37.2976" fill="#6495ED"/>
<path d="M29.5 37.2976V95.3422C29.5 98.0362 32.292 100.62 37.2617 102.525C42.2314 104.43 48.9718 105.5 56 105.5C63.0282 105.5 69.7686 104.43 74.7383 102.525C79.708 100.62 82.5 98.0362 82.5 95.3422V56.7425C82.4992 58.8306 80.8197 60.8678 77.6901 62.5769C74.5605 64.286 70.1329 65.5838 65.01 66.2938V85.4485C70.1329 84.7386 74.5605 83.4407 77.6901 81.7316C80.8197 80.0226 82.4992 77.9853 82.5 75.8973V37.2976M29.5 37.2976C29.5 39.9916 32.292 42.5753 37.2617 44.4803C42.2314 46.3852 48.9718 47.4554 56 47.4554C63.0282 47.4554 69.7686 46.3852 74.7383 44.4803C79.708 42.5753 82.5 39.9916 82.5 37.2976M29.5 37.2976L40.1 28.5909H71.9L82.5 37.2976" stroke="#F0FFFF" stroke-width="5"/>
<path d="M34.7989 19.5427V28.1601C34.7989 29.2162 35.3472 30.262 36.4126 31.2379C37.478 32.2137 39.0396 33.1003 41.0082 33.8471C42.9768 34.594 45.3138 35.1864 47.8859 35.5906C50.4581 35.9948 53.2148 36.2028 55.9989 36.2028C58.7829 36.2028 61.5396 35.9948 64.1118 35.5906C66.6838 35.1864 69.021 34.594 70.9895 33.8471C72.9581 33.1003 74.5197 32.2137 75.5851 31.2379C76.6504 30.262 77.1989 29.2162 77.1989 28.1601V19.5427C77.1989 21.6758 74.9653 23.7216 70.9895 25.2299C67.0138 26.7381 61.6214 27.5856 55.9989 27.5856C50.3763 27.5856 44.9839 26.7381 41.0082 25.2299C37.0324 23.7216 34.7989 21.6758 34.7989 19.5427Z" fill="#6495ED" stroke="#F0FFFF" stroke-width="5" stroke-linecap="round"/>
<path d="M34.7989 19.5427C34.7989 18.4866 35.3472 17.4407 36.4126 16.4649C37.478 15.4891 39.0396 14.6025 41.0082 13.8556C42.9768 13.1089 45.3138 12.5164 47.8859 12.1122C50.4581 11.708 53.2148 11.5 55.9989 11.5C58.7829 11.5 61.5396 11.708 64.1118 12.1122C66.6838 12.5164 69.021 13.1089 70.9895 13.8556C72.9581 14.6025 74.5197 15.4891 75.5851 16.4649C76.6504 17.4407 77.1989 18.4866 77.1989 19.5427C77.1989 21.6758 74.9653 23.7216 70.9895 25.2299C67.0138 26.7383 61.6214 27.5856 55.9989 27.5856C50.3763 27.5856 44.9839 26.7383 41.0082 25.2299C37.0324 23.7216 34.7989 21.6758 34.7989 19.5427Z" fill="#6495ED" stroke="#F0FFFF" stroke-width="5" stroke-linecap="round"/>
</svg>
