<svg width="40" height="40" viewBox="0 0 40 40" fill="none" xmlns="http://www.w3.org/2000/svg">
<path d="M6.35265 29.084C5.92614 29.8684 5.58666 31.0486 5.58666 31.7923C5.58666 31.9649 5.58666 32.1845 5.62842 32.4891L0.297714 23.101C0.127082 22.7964 0 22.3594 0 21.9657C0 21.5714 0.127082 21.0921 0.297714 20.787L2.85687 16.2018L0 14.5438L9.29662 14.3675L13.8161 22.7073L10.9174 21.0045L6.35265 29.084ZM10.4474 2.62273C11.2569 1.18022 12.58 0.394253 14.1991 0.394253C15.9487 0.394253 17.3136 1.22501 18.2937 2.92577L19.7439 5.41451L14.7109 14.3248L6.56677 9.47714L10.4474 2.62273ZM11.0427 36.6378C8.61238 36.6378 6.60854 34.5856 6.60854 32.0969C6.60854 31.398 6.90797 30.2179 7.33449 29.4762L8.69763 26.9875H18.8055V36.6379H11.0427V36.6378ZM19.1468 2.35887C18.5079 1.22501 17.6548 0.437023 16.6312 0H27.1203C28.0586 0 28.7829 0.394253 29.2112 1.13738L31.8122 5.67831L34.6257 3.97396L30.1043 12.2725L20.8529 12.139L23.7098 10.481L19.1468 2.35887ZM35.3099 27.075C36.5877 27.075 37.655 26.7257 38.5498 26.0283L33.2609 35.4591C32.8344 36.2007 32.0684 36.6377 31.1733 36.6377H26.182V40L21.4066 31.835L26.182 23.6679V27.075H35.3099V27.075ZM39.4011 19.2146C39.7859 19.9135 40 20.6551 40 21.4415C40 23.0139 39.0181 24.6734 37.655 25.4579C37.0143 25.8094 36.1177 26.0284 35.2246 26.0284H32.4078L27.378 17.1181L35.5223 12.3581L39.4011 19.2146Z" fill="black"/>
</svg>
