<svg width="93" height="86" viewBox="0 0 93 86" fill="none" xmlns="http://www.w3.org/2000/svg">
<rect width="93" height="86" fill="#6495ED"/>
<path d="M23 25.7059V72.7647C23 73.8461 23.5432 74.917 24.5985 75.9162C25.6539 76.9153 27.2007 77.8232 29.1508 78.5879C31.1008 79.3526 33.4158 79.9592 35.9636 80.3731C38.5115 80.7869 41.2422 81 44 81C46.7578 81 49.4885 80.7869 52.0364 80.3731C54.5842 79.9592 56.8992 79.3526 58.8492 78.5879C60.7993 77.8232 62.3461 76.9153 63.4015 75.9162C64.4568 74.917 65 73.8461 65 72.7647V25.7059C65 27.89 62.7875 29.9847 58.8492 31.5291C54.911 33.0735 49.5695 33.9411 44 33.9411C38.4305 33.9411 33.089 33.0735 29.1508 31.5291C25.2125 29.9847 23 27.89 23 25.7059ZM23 25.7059L31.4 18.647H56.6L65 25.7059" stroke="#F0FFFF" stroke-width="2" stroke-linecap="round"/>
</svg>
