<svg width="113" height="117" viewBox="0 0 113 117" fill="none" xmlns="http://www.w3.org/2000/svg">
<rect width="113" height="117" fill="#6495ED"/>
<path d="M10 31.1321V78.6792C10 80.886 12.2125 83.0025 16.1508 84.5629C20.089 86.1233 25.4305 87 31 87C36.5695 87 41.911 86.1233 45.8492 84.5629C49.7875 83.0025 52 80.886 52 78.6792V47.0604C51.9994 48.7708 50.6685 50.4396 48.1884 51.8396C45.7083 53.2396 42.1996 54.3027 38.14 54.8843V70.5748C42.1996 69.9933 45.7083 68.9302 48.1884 67.5302C50.6685 66.1302 51.9994 64.4614 52 62.7509V31.1321C52 33.3389 49.7875 35.4553 45.8492 37.0157C41.911 38.5762 36.5695 39.4528 31 39.4528C25.4305 39.4528 20.089 38.5762 16.1508 37.0157C12.2125 35.4553 10 33.3389 10 31.1321L18.4 24H43.6L52 31.1321" fill="#6495ED"/>
<path d="M10 31.1321V78.6792C10 80.886 12.2125 83.0025 16.1508 84.5629C20.089 86.1233 25.4305 87 31 87C36.5695 87 41.911 86.1233 45.8492 84.5629C49.7875 83.0025 52 80.886 52 78.6792V47.0604C51.9994 48.7708 50.6685 50.4396 48.1884 51.8396C45.7083 53.2396 42.1996 54.3027 38.14 54.8843V70.5748C42.1996 69.9933 45.7083 68.9302 48.1884 67.5302C50.6685 66.1302 51.9994 64.4614 52 62.7509V31.1321M10 31.1321C10 33.3389 12.2125 35.4553 16.1508 37.0157C20.089 38.5762 25.4305 39.4528 31 39.4528C36.5695 39.4528 41.911 38.5762 45.8492 37.0157C49.7875 35.4553 52 33.3389 52 31.1321M10 31.1321L18.4 24H43.6L52 31.1321" stroke="#F0FFFF" stroke-width="4"/>
<path d="M14.1991 16.5882V23.6471C14.1991 24.5122 14.6336 25.3689 15.4779 26.1683C16.3222 26.9676 17.5597 27.6939 19.1197 28.3056C20.6797 28.9174 22.5317 29.4027 24.57 29.7338C26.6083 30.0649 28.7929 30.2353 30.9991 30.2353C33.2053 30.2353 35.3899 30.0649 37.4282 29.7338C39.4664 29.4027 41.3185 28.9174 42.8785 28.3056C44.4385 27.6939 45.676 26.9676 46.5203 26.1683C47.3645 25.3689 47.7991 24.5122 47.7991 23.6471V16.5882C47.7991 18.3355 46.0291 20.0113 42.8785 21.2468C39.7279 22.4823 35.4547 23.1765 30.9991 23.1765C26.5435 23.1765 22.2703 22.4823 19.1197 21.2468C15.9691 20.0113 14.1991 18.3355 14.1991 16.5882Z" fill="#6495ED" stroke="#F0FFFF" stroke-width="4" stroke-linecap="round"/>
<path d="M14.1991 16.5882C14.1991 15.7231 14.6336 14.8663 15.4779 14.067C16.3222 13.2677 17.5597 12.5414 19.1197 11.9296C20.6797 11.3179 22.5317 10.8326 24.57 10.5015C26.6083 10.1704 28.7929 10 30.9991 10C33.2053 10 35.3899 10.1704 37.4282 10.5015C39.4664 10.8326 41.3185 11.3179 42.8785 11.9296C44.4385 12.5414 45.676 13.2677 46.5203 14.067C47.3645 14.8663 47.7991 15.7231 47.7991 16.5882C47.7991 18.3355 46.0291 20.0113 42.8785 21.2468C39.7279 22.4824 35.4547 23.1765 30.9991 23.1765C26.5435 23.1765 22.2703 22.4824 19.1197 21.2468C15.9691 20.0113 14.1991 18.3355 14.1991 16.5882Z" fill="#6495ED" stroke="#F0FFFF" stroke-width="4" stroke-linecap="round"/>
<path d="M61 31.1321V78.6792C61 80.886 63.2125 83.0025 67.1508 84.5629C71.089 86.1233 76.4305 87 82 87C87.5695 87 92.911 86.1233 96.8492 84.5629C100.788 83.0025 103 80.886 103 78.6792V47.0604C102.999 48.7708 101.668 50.4396 99.1884 51.8396C96.7083 53.2396 93.1996 54.3027 89.14 54.8843V70.5748C93.1996 69.9933 96.7083 68.9302 99.1884 67.5302C101.668 66.1302 102.999 64.4614 103 62.7509V31.1321C103 33.3389 100.788 35.4553 96.8492 37.0157C92.911 38.5762 87.5695 39.4528 82 39.4528C76.4305 39.4528 71.089 38.5762 67.1508 37.0157C63.2125 35.4553 61 33.3389 61 31.1321L69.4 24H94.6L103 31.1321" fill="#6495ED"/>
<path d="M61 31.1321V78.6792C61 80.886 63.2125 83.0025 67.1508 84.5629C71.089 86.1233 76.4305 87 82 87C87.5695 87 92.911 86.1233 96.8492 84.5629C100.788 83.0025 103 80.886 103 78.6792V47.0604C102.999 48.7708 101.668 50.4396 99.1884 51.8396C96.7083 53.2396 93.1996 54.3027 89.14 54.8843V70.5748C93.1996 69.9933 96.7083 68.9302 99.1884 67.5302C101.668 66.1302 102.999 64.4614 103 62.7509V31.1321M61 31.1321C61 33.3389 63.2125 35.4553 67.1508 37.0157C71.089 38.5762 76.4305 39.4528 82 39.4528C87.5695 39.4528 92.911 38.5762 96.8492 37.0157C100.788 35.4553 103 33.3389 103 31.1321M61 31.1321L69.4 24H94.6L103 31.1321" stroke="#F0FFFF" stroke-width="4"/>
<path d="M65.1991 16.5882V23.6471C65.1991 24.5122 65.6336 25.3689 66.4779 26.1683C67.3222 26.9676 68.5597 27.6939 70.1197 28.3056C71.6797 28.9174 73.5317 29.4027 75.57 29.7338C77.6083 30.0649 79.7929 30.2353 81.9991 30.2353C84.2053 30.2353 86.3899 30.0649 88.4282 29.7338C90.4664 29.4027 92.3185 28.9174 93.8785 28.3056C95.4385 27.6939 96.676 26.9676 97.5203 26.1683C98.3645 25.3689 98.7991 24.5122 98.7991 23.6471V16.5882C98.7991 18.3355 97.0291 20.0113 93.8785 21.2468C90.7279 22.4823 86.4547 23.1765 81.9991 23.1765C77.5435 23.1765 73.2703 22.4823 70.1197 21.2468C66.9691 20.0113 65.1991 18.3355 65.1991 16.5882Z" fill="#6495ED" stroke="#F0FFFF" stroke-width="4" stroke-linecap="round"/>
<path d="M65.1991 16.5882C65.1991 15.7231 65.6336 14.8663 66.4779 14.067C67.3222 13.2677 68.5597 12.5414 70.1197 11.9296C71.6797 11.3179 73.5317 10.8326 75.57 10.5015C77.6083 10.1704 79.7929 10 81.9991 10C84.2053 10 86.3899 10.1704 88.4282 10.5015C90.4664 10.8326 92.3185 11.3179 93.8785 11.9296C95.4385 12.5414 96.676 13.2677 97.5203 14.067C98.3645 14.8663 98.7991 15.7231 98.7991 16.5882C98.7991 18.3355 97.0291 20.0113 93.8785 21.2468C90.7279 22.4824 86.4547 23.1765 81.9991 23.1765C77.5435 23.1765 73.2703 22.4824 70.1197 21.2468C66.9691 20.0113 65.1991 18.3355 65.1991 16.5882Z" fill="#6495ED" stroke="#F0FFFF" stroke-width="4" stroke-linecap="round"/>
<path d="M57.1195 38.25L75.7391 52.5V62.75H38.5L38.5 52.5L57.1195 38.25Z" fill="#6495ED"/>
<path d="M36 51.1321V98.6792C36 100.886 38.2125 103.002 42.1508 104.563C46.089 106.123 51.4305 107 57 107C62.5695 107 67.911 106.123 71.8492 104.563C75.7875 103.002 78 100.886 78 98.6792V67.0604C77.9994 68.7708 76.6685 70.4396 74.1884 71.8396C71.7083 73.2396 68.1996 74.3027 64.14 74.8843V90.5748C68.1996 89.9933 71.7083 88.9302 74.1884 87.5302C76.6685 86.1302 77.9994 84.4614 78 82.7509V51.1321C78 53.3389 75.7875 55.4553 71.8492 57.0157C67.911 58.5762 62.5695 59.4528 57 59.4528C51.4305 59.4528 46.089 58.5762 42.1508 57.0157C38.2125 55.4553 36 53.3389 36 51.1321L44.4 44H69.6L78 51.1321" fill="#6495ED"/>
<path d="M36 51.1321V98.6792C36 100.886 38.2125 103.002 42.1508 104.563C46.089 106.123 51.4305 107 57 107C62.5695 107 67.911 106.123 71.8492 104.563C75.7875 103.002 78 100.886 78 98.6792V67.0604C77.9994 68.7708 76.6685 70.4396 74.1884 71.8396C71.7083 73.2396 68.1996 74.3027 64.14 74.8843V90.5748C68.1996 89.9933 71.7083 88.9302 74.1884 87.5302C76.6685 86.1302 77.9994 84.4614 78 82.7509V51.1321M36 51.1321C36 53.3389 38.2125 55.4553 42.1508 57.0157C46.089 58.5762 51.4305 59.4528 57 59.4528C62.5695 59.4528 67.911 58.5762 71.8492 57.0157C75.7875 55.4553 78 53.3389 78 51.1321M36 51.1321L44.4 44H69.6L78 51.1321" stroke="#F0FFFF" stroke-width="4"/>
<path d="M40.1991 36.5882V43.6471C40.1991 44.5122 40.6336 45.3689 41.4779 46.1683C42.3222 46.9676 43.5597 47.6939 45.1197 48.3056C46.6797 48.9174 48.5317 49.4027 50.57 49.7338C52.6083 50.0649 54.7929 50.2353 56.9991 50.2353C59.2053 50.2353 61.3899 50.0649 63.4282 49.7338C65.4664 49.4027 67.3185 48.9174 68.8785 48.3056C70.4385 47.6939 71.676 46.9676 72.5203 46.1683C73.3645 45.3689 73.7991 44.5122 73.7991 43.6471V36.5882C73.7991 38.3355 72.0291 40.0113 68.8785 41.2468C65.7279 42.4823 61.4547 43.1765 56.9991 43.1765C52.5435 43.1765 48.2703 42.4823 45.1197 41.2468C41.9691 40.0113 40.1991 38.3355 40.1991 36.5882Z" fill="#6495ED" stroke="#F0FFFF" stroke-width="4" stroke-linecap="round"/>
<path d="M40.1991 36.5882C40.1991 35.7231 40.6336 34.8663 41.4779 34.067C42.3222 33.2677 43.5597 32.5414 45.1197 31.9296C46.6797 31.3179 48.5317 30.8326 50.57 30.5015C52.6083 30.1704 54.7929 30 56.9991 30C59.2053 30 61.3899 30.1704 63.4282 30.5015C65.4664 30.8326 67.3185 31.3179 68.8785 31.9296C70.4385 32.5414 71.676 33.2677 72.5203 34.067C73.3645 34.8663 73.7991 35.7231 73.7991 36.5882C73.7991 38.3355 72.0291 40.0113 68.8785 41.2468C65.7279 42.4824 61.4547 43.1765 56.9991 43.1765C52.5435 43.1765 48.2703 42.4824 45.1197 41.2468C41.9691 40.0113 40.1991 38.3355 40.1991 36.5882Z" fill="#6495ED" stroke="#F0FFFF" stroke-width="4" stroke-linecap="round"/>
</svg>
