<svg width="95" height="99" viewBox="0 0 95 99" fill="none" xmlns="http://www.w3.org/2000/svg">
<path d="M1 22.1321V69.6792C1 71.886 3.21249 74.0025 7.15076 75.5629C11.089 77.1233 16.4305 78 22 78C27.5695 78 32.911 77.1233 36.8492 75.5629C40.7875 74.0025 43 71.886 43 69.6792V38.0604C42.9994 39.7708 41.6685 41.4396 39.1884 42.8396C36.7083 44.2396 33.1996 45.3027 29.14 45.8843V61.5748C33.1996 60.9933 36.7083 59.9302 39.1884 58.5302C41.6685 57.1302 42.9994 55.4614 43 53.7509V22.1321C43 24.3389 40.7875 26.4553 36.8492 28.0157C32.911 29.5762 27.5695 30.4528 22 30.4528C16.4305 30.4528 11.089 29.5762 7.15076 28.0157C3.21249 26.4553 1 24.3389 1 22.1321L9.4 15H34.6L43 22.1321" fill="#6495ED"/>
<path d="M1 22.1321V69.6792C1 71.886 3.21249 74.0025 7.15076 75.5629C11.089 77.1233 16.4305 78 22 78C27.5695 78 32.911 77.1233 36.8492 75.5629C40.7875 74.0025 43 71.886 43 69.6792V38.0604C42.9994 39.7708 41.6685 41.4396 39.1884 42.8396C36.7083 44.2396 33.1996 45.3027 29.14 45.8843V61.5748C33.1996 60.9933 36.7083 59.9302 39.1884 58.5302C41.6685 57.1302 42.9994 55.4614 43 53.7509V22.1321M1 22.1321C1 24.3389 3.21249 26.4553 7.15076 28.0157C11.089 29.5762 16.4305 30.4528 22 30.4528C27.5695 30.4528 32.911 29.5762 36.8492 28.0157C40.7875 26.4553 43 24.3389 43 22.1321M1 22.1321L9.4 15H34.6L43 22.1321" stroke="#F0FFFF" stroke-width="2"/>
<path d="M5.1991 7.5882V14.6471C5.1991 15.5122 5.6336 16.3689 6.4779 17.1683C7.3222 17.9676 8.5597 18.6939 10.1197 19.3056C11.6797 19.9174 13.5317 20.4027 15.57 20.7338C17.6083 21.0649 19.7929 21.2353 21.9991 21.2353C24.2053 21.2353 26.3899 21.0649 28.4282 20.7338C30.4664 20.4027 32.3185 19.9174 33.8785 19.3056C35.4385 18.6939 36.676 17.9676 37.5203 17.1683C38.3645 16.3689 38.7991 15.5122 38.7991 14.6471V7.5882C38.7991 9.3355 37.0291 11.0113 33.8785 12.2468C30.7279 13.4823 26.4547 14.1765 21.9991 14.1765C17.5435 14.1765 13.2703 13.4823 10.1197 12.2468C6.9691 11.0113 5.1991 9.3355 5.1991 7.5882Z" fill="#6495ED" stroke="#F0FFFF" stroke-width="2" stroke-linecap="round"/>
<path d="M5.1991 7.5882C5.1991 6.7231 5.6336 5.8663 6.4779 5.067C7.3222 4.2677 8.5597 3.5414 10.1197 2.9296C11.6797 2.3179 13.5317 1.8326 15.57 1.5015C17.6083 1.1704 19.7929 1 21.9991 1C24.2053 1 26.3899 1.1704 28.4282 1.5015C30.4664 1.8326 32.3185 2.3179 33.8785 2.9296C35.4385 3.5414 36.676 4.2677 37.5203 5.067C38.3645 5.8663 38.7991 6.7231 38.7991 7.5882C38.7991 9.3355 37.0291 11.0113 33.8785 12.2468C30.7279 13.4824 26.4547 14.1765 21.9991 14.1765C17.5435 14.1765 13.2703 13.4824 10.1197 12.2468C6.9691 11.0113 5.1991 9.3355 5.1991 7.5882Z" fill="#6495ED" stroke="#F0FFFF" stroke-width="2" stroke-linecap="round"/>
<path d="M52 22.1321V69.6792C52 71.886 54.2125 74.0025 58.1508 75.5629C62.089 77.1233 67.4305 78 73 78C78.5695 78 83.911 77.1233 87.8492 75.5629C91.7875 74.0025 94 71.886 94 69.6792V38.0604C93.9994 39.7708 92.6685 41.4396 90.1884 42.8396C87.7083 44.2396 84.1996 45.3027 80.14 45.8843V61.5748C84.1996 60.9933 87.7083 59.9302 90.1884 58.5302C92.6685 57.1302 93.9994 55.4614 94 53.7509V22.1321C94 24.3389 91.7875 26.4553 87.8492 28.0157C83.911 29.5762 78.5695 30.4528 73 30.4528C67.4305 30.4528 62.089 29.5762 58.1508 28.0157C54.2125 26.4553 52 24.3389 52 22.1321L60.4 15H85.6L94 22.1321" fill="#6495ED"/>
<path d="M52 22.1321V69.6792C52 71.886 54.2125 74.0025 58.1508 75.5629C62.089 77.1233 67.4305 78 73 78C78.5695 78 83.911 77.1233 87.8492 75.5629C91.7875 74.0025 94 71.886 94 69.6792V38.0604C93.9994 39.7708 92.6685 41.4396 90.1884 42.8396C87.7083 44.2396 84.1996 45.3027 80.14 45.8843V61.5748C84.1996 60.9933 87.7083 59.9302 90.1884 58.5302C92.6685 57.1302 93.9994 55.4614 94 53.7509V22.1321M52 22.1321C52 24.3389 54.2125 26.4553 58.1508 28.0157C62.089 29.5762 67.4305 30.4528 73 30.4528C78.5695 30.4528 83.911 29.5762 87.8492 28.0157C91.7875 26.4553 94 24.3389 94 22.1321M52 22.1321L60.4 15H85.6L94 22.1321" stroke="#F0FFFF" stroke-width="2"/>
<path d="M56.1991 7.5882V14.6471C56.1991 15.5122 56.6336 16.3689 57.4779 17.1683C58.3222 17.9676 59.5597 18.6939 61.1197 19.3056C62.6797 19.9174 64.5317 20.4027 66.57 20.7338C68.6083 21.0649 70.7929 21.2353 72.9991 21.2353C75.2053 21.2353 77.3899 21.0649 79.4282 20.7338C81.4664 20.4027 83.3185 19.9174 84.8785 19.3056C86.4385 18.6939 87.676 17.9676 88.5203 17.1683C89.3645 16.3689 89.7991 15.5122 89.7991 14.6471V7.5882C89.7991 9.3355 88.0291 11.0113 84.8785 12.2468C81.7279 13.4823 77.4547 14.1765 72.9991 14.1765C68.5435 14.1765 64.2703 13.4823 61.1197 12.2468C57.9691 11.0113 56.1991 9.3355 56.1991 7.5882Z" fill="#6495ED" stroke="#F0FFFF" stroke-width="2" stroke-linecap="round"/>
<path d="M56.1991 7.5882C56.1991 6.7231 56.6336 5.8663 57.4779 5.067C58.3222 4.2677 59.5597 3.5414 61.1197 2.9296C62.6797 2.3179 64.5317 1.8326 66.57 1.5015C68.6083 1.1704 70.7929 1 72.9991 1C75.2053 1 77.3899 1.1704 79.4282 1.5015C81.4664 1.8326 83.3185 2.3179 84.8785 2.9296C86.4385 3.5414 87.676 4.2677 88.5203 5.067C89.3645 5.8663 89.7991 6.7231 89.7991 7.5882C89.7991 9.3355 88.0291 11.0113 84.8785 12.2468C81.7279 13.4824 77.4547 14.1765 72.9991 14.1765C68.5435 14.1765 64.2703 13.4824 61.1197 12.2468C57.9691 11.0113 56.1991 9.3355 56.1991 7.5882Z" fill="#6495ED" stroke="#F0FFFF" stroke-width="2" stroke-linecap="round"/>
<path d="M48.1195 29.25L66.7391 43.5V53.75H29.5L29.5 43.5L48.1195 29.25Z" fill="#6495ED"/>
<path d="M27 42.1321V89.6792C27 91.886 29.2125 94.0025 33.1508 95.5629C37.089 97.1233 42.4305 98 48 98C53.5695 98 58.911 97.1233 62.8492 95.5629C66.7875 94.0025 69 91.886 69 89.6792V58.0604C68.9994 59.7708 67.6685 61.4396 65.1884 62.8396C62.7083 64.2396 59.1996 65.3027 55.14 65.8843V81.5748C59.1996 80.9933 62.7083 79.9302 65.1884 78.5302C67.6685 77.1302 68.9994 75.4614 69 73.7509V42.1321C69 44.3389 66.7875 46.4553 62.8492 48.0157C58.911 49.5762 53.5695 50.4528 48 50.4528C42.4305 50.4528 37.089 49.5762 33.1508 48.0157C29.2125 46.4553 27 44.3389 27 42.1321L35.4 35H60.6L69 42.1321" fill="#6495ED"/>
<path d="M27 42.1321V89.6792C27 91.886 29.2125 94.0025 33.1508 95.5629C37.089 97.1233 42.4305 98 48 98C53.5695 98 58.911 97.1233 62.8492 95.5629C66.7875 94.0025 69 91.886 69 89.6792V58.0604C68.9994 59.7708 67.6685 61.4396 65.1884 62.8396C62.7083 64.2396 59.1996 65.3027 55.14 65.8843V81.5748C59.1996 80.9933 62.7083 79.9302 65.1884 78.5302C67.6685 77.1302 68.9994 75.4614 69 73.7509V42.1321M27 42.1321C27 44.3389 29.2125 46.4553 33.1508 48.0157C37.089 49.5762 42.4305 50.4528 48 50.4528C53.5695 50.4528 58.911 49.5762 62.8492 48.0157C66.7875 46.4553 69 44.3389 69 42.1321M27 42.1321L35.4 35H60.6L69 42.1321" stroke="#F0FFFF" stroke-width="2"/>
<path d="M31.1991 27.5882V34.6471C31.1991 35.5122 31.6336 36.3689 32.4779 37.1683C33.3222 37.9676 34.5597 38.6939 36.1197 39.3056C37.6797 39.9174 39.5317 40.4027 41.57 40.7338C43.6083 41.0649 45.7929 41.2353 47.9991 41.2353C50.2053 41.2353 52.3899 41.0649 54.4282 40.7338C56.4664 40.4027 58.3185 39.9174 59.8785 39.3056C61.4385 38.6939 62.676 37.9676 63.5203 37.1683C64.3645 36.3689 64.7991 35.5122 64.7991 34.6471V27.5882C64.7991 29.3355 63.0291 31.0113 59.8785 32.2468C56.7279 33.4823 52.4547 34.1765 47.9991 34.1765C43.5435 34.1765 39.2703 33.4823 36.1197 32.2468C32.9691 31.0113 31.1991 29.3355 31.1991 27.5882Z" fill="#6495ED" stroke="#F0FFFF" stroke-width="2" stroke-linecap="round"/>
<path d="M31.1991 27.5882C31.1991 26.7231 31.6336 25.8663 32.4779 25.067C33.3222 24.2677 34.5597 23.5414 36.1197 22.9296C37.6797 22.3179 39.5317 21.8326 41.57 21.5015C43.6083 21.1704 45.7929 21 47.9991 21C50.2053 21 52.3899 21.1704 54.4282 21.5015C56.4664 21.8326 58.3185 22.3179 59.8785 22.9296C61.4385 23.5414 62.676 24.2677 63.5203 25.067C64.3645 25.8663 64.7991 26.7231 64.7991 27.5882C64.7991 29.3355 63.0291 31.0113 59.8785 32.2468C56.7279 33.4824 52.4547 34.1765 47.9991 34.1765C43.5435 34.1765 39.2703 33.4824 36.1197 32.2468C32.9691 31.0113 31.1991 29.3355 31.1991 27.5882Z" fill="#6495ED" stroke="#F0FFFF" stroke-width="2" stroke-linecap="round"/>
</svg>
